<?xml version="1.0" encoding="utf-8"?>
<!-- Generator: Adobe Illustrator 21.0.0, SVG Export Plug-In . SVG Version: 6.00 Build 0)  -->
<svg version="1.1" xmlns="http://www.w3.org/2000/svg" xmlns:xlink="http://www.w3.org/1999/xlink" x="0px" y="0px"
	 viewBox="0 0 469.4 504.1" style="enable-background:new 0 0 469.4 504.1;" xml:space="preserve">
<style type="text/css">
	.st0{fill:#D7D7D7;}
	.st1{opacity:0.4;}
	.st2{fill:#333333;}
	.st3{fill:none;stroke:#333333;stroke-width:0.3095;stroke-miterlimit:10;}
	.st4{enable-background:new    ;}
	.st5{fill:none;stroke:#FFFFFF;stroke-width:2;}
	.st6{fill:none;stroke:#FFFFFF;stroke-width:1.5;}
	.st7{fill:#00A0B8;}
	.st8{fill:#FFFFFF;}
	.st9{fill:none;stroke:#333333;stroke-width:2;}
	.st10{fill:#00B1CA;}
	.st11{fill:#F4D14C;}
</style>
<g id="Layer_2">
</g>
<g id="Layer_1">
	<g>
		<g>
			<path class="st11" d="M204.1,0C92-0.4,0.7,90,0,202.2c0,89.5,125.5,221.2,179.2,276.4c6.7,7,24.9,24.2,24.9,24.2
				s18.3-17.3,24.8-24.2c53.8-55.2,179.4-186.9,179.4-276.4C407.6,90,316.3-0.4,204.1,0z"/>
		</g>
		<g>
			<g>
				<path class="st8" d="M150.8,122.1h48.1c21.9,0,37.8,3.1,47.7,9.3c9.9,6.2,14.8,16.1,14.8,29.7c0,9.2-2.2,16.8-6.5,22.7
					c-4.3,5.9-10.1,9.5-17.3,10.7v1.1c9.8,2.2,16.8,6.3,21.2,12.3c4.3,6,6.5,13.9,6.5,23.9c0,14.1-5.1,25.1-15.3,33
					c-10.2,7.9-24,11.8-41.5,11.8h-57.8V122.1z M183.5,183.3h19c8.9,0,15.3-1.4,19.3-4.1s6-7.3,6-13.6c0-5.9-2.2-10.2-6.5-12.7
					c-4.3-2.6-11.2-3.9-20.5-3.9h-17.2V183.3z M183.5,209.3v40.2h21.3c9,0,15.7-1.7,20-5.2c4.3-3.5,6.4-8.7,6.4-15.8
					c0-12.8-9.2-19.2-27.5-19.2H183.5z"/>
			</g>
		</g>
	</g>
</g>
</svg>
