<?xml version="1.0" encoding="utf-8"?>
<!-- Generator: Adobe Illustrator 21.0.0, SVG Export Plug-In . SVG Version: 6.00 Build 0)  -->
<svg version="1.1" xmlns="http://www.w3.org/2000/svg" xmlns:xlink="http://www.w3.org/1999/xlink" x="0px" y="0px"
	 viewBox="0 0 469.4 504.1" style="enable-background:new 0 0 469.4 504.1;" xml:space="preserve">
<style type="text/css">
	.st0{fill:#D7D7D7;}
	.st1{opacity:0.4;}
	.st2{fill:#333333;}
	.st3{fill:none;stroke:#333333;stroke-width:0.3095;stroke-miterlimit:10;}
	.st4{enable-background:new    ;}
	.st5{fill:none;stroke:#FFFFFF;stroke-width:2;}
	.st6{fill:none;stroke:#FFFFFF;stroke-width:1.5;}
	.st7{fill:#00A0B8;}
	.st8{fill:#FFFFFF;}
	.st9{fill:none;stroke:#333333;stroke-width:2;}
	.st10{fill:#00B1CA;}
	.st11{fill:#F4D14C;}
</style>
<g id="Layer_2">
</g>
<g id="Layer_1">
	<g>
		<path class="st10" d="M204.1,0C92-0.4,0.7,90,0,202.2c0,89.5,125.5,221.2,179.2,276.4c6.7,7,24.9,24.2,24.9,24.2
			s18.3-17.3,24.8-24.2c53.8-55.2,179.4-186.9,179.4-276.4C407.6,90,316.3-0.4,204.1,0z"/>
		<g>
			<path class="st8" d="M243.5,276.1l-11.2-36.7H176l-11.2,36.7h-35.3L184,121.2h40l54.7,154.9H243.5z M224.5,212
				c-10.3-33.3-16.2-52.1-17.5-56.5c-1.3-4.4-2.2-7.8-2.8-10.3c-2.3,9-9,31.3-19.9,66.8H224.5z"/>
		</g>
	</g>
</g>
</svg>
